<?xml version="1.0" standalone="no"?>
<!DOCTYPE svg PUBLIC "-//W3C//DTD SVG 20010904//EN"
 "http://www.w3.org/TR/2001/REC-SVG-20010904/DTD/svg10.dtd">
<svg version="1.0" xmlns="http://www.w3.org/2000/svg"
 width="640.000000pt" height="639.000000pt" viewBox="0 0 640.000000 639.000000"
 preserveAspectRatio="xMidYMid meet">
<metadata>
Created by potrace 1.16, written by Peter Selinger 2001-2019
</metadata>
<g transform="translate(0.000000,639.000000) scale(0.100000,-0.100000)"
fill="#000000" stroke="none">
<path d="M0 3195 l0 -3195 3200 0 3200 0 0 3195 0 3195 -3200 0 -3200 0 0
-3195z m3500 1927 c91 -53 219 -127 285 -165 66 -38 125 -72 130 -77 6 -4 30
-19 55 -32 25 -14 86 -49 135 -78 50 -28 149 -86 220 -127 72 -41 137 -80 147
-87 15 -11 17 -73 19 -715 l3 -704 -22 -17 c-11 -10 -81 -50 -154 -90 -73 -40
-169 -94 -213 -120 -44 -26 -111 -64 -150 -85 -38 -21 -126 -71 -195 -110
-253 -146 -426 -244 -462 -261 -44 -21 -33 -25 -243 101 -161 97 -397 235
-465 273 -30 17 -103 59 -162 94 -59 35 -168 99 -243 142 -75 44 -139 85 -143
92 -4 7 -5 329 -2 715 l5 703 150 84 c83 46 215 120 295 164 80 44 170 95 200
113 30 18 136 78 235 133 99 55 216 121 260 146 l79 45 36 -21 c19 -11 109
-64 200 -116z"/>
<path d="M3210 5148 c-19 -11 -138 -79 -265 -150 -126 -72 -260 -148 -297
-169 -36 -21 -69 -39 -71 -39 -4 0 -32 -16 -162 -93 -17 -9 -87 -49 -157 -88
-71 -39 -128 -72 -128 -75 0 -2 17 -33 39 -67 36 -58 83 -138 143 -247 49 -87
251 -436 289 -499 22 -34 39 -65 39 -67 0 -2 14 -27 32 -56 17 -29 46 -78 63
-108 18 -30 65 -111 105 -180 40 -69 115 -199 167 -290 52 -91 110 -187 128
-215 18 -27 49 -80 70 -117 20 -38 40 -68 45 -68 4 0 54 78 110 173 57 94 115
192 130 217 15 25 53 90 85 145 32 55 59 102 61 104 7 8 54 -19 54 -31 0 -7
-54 -107 -121 -223 -181 -315 -249 -438 -245 -442 2 -3 39 15 83 38 115 62
725 404 818 458 44 25 97 55 118 66 21 11 48 29 61 40 l24 20 -5 660 -6 660
-66 40 c-36 21 -91 52 -121 68 -30 17 -78 44 -105 62 -28 17 -70 43 -95 57
-25 14 -101 58 -170 98 -69 41 -165 97 -215 125 -49 29 -130 76 -180 105 -210
124 -200 120 -255 88z m-620 -573 c69 -2 310 -14 535 -25 516 -26 1074 -50
1143 -50 39 0 52 -4 52 -15 0 -8 -4 -15 -9 -15 -5 0 -94 -52 -198 -117 -177
-110 -358 -221 -502 -309 -35 -21 -74 -46 -87 -54 -13 -8 -118 -73 -232 -144
-240 -149 -285 -178 -293 -189 -6 -9 58 -133 190 -367 l70 -125 -21 -18 c-36
-30 -29 -39 -173 219 -127 225 -300 536 -405 724 -54 96 -136 244 -184 328
-47 84 -84 157 -81 162 3 5 20 7 38 5 17 -2 88 -7 157 -10z"/>
<path d="M2520 4498 c0 -4 21 -45 46 -90 26 -46 62 -112 82 -148 43 -79 198
-355 260 -463 42 -74 45 -77 66 -64 11 8 57 36 101 62 44 26 91 56 105 65 14
10 41 27 60 37 19 11 89 54 155 95 66 41 188 117 270 168 283 175 428 270 414
270 -8 0 -180 9 -384 20 -342 18 -637 32 -1023 48 -83 4 -152 4 -152 0z"/>
<path d="M2117 4263 c-4 -71 -7 -340 -7 -599 l0 -471 143 -85 c304 -183 910
-529 915 -523 2 2 -23 50 -56 107 -32 57 -71 126 -87 153 -37 67 -201 351
-448 775 -50 85 -114 196 -143 245 -143 248 -202 348 -252 430 -30 50 -56 91
-57 93 -1 1 -5 -55 -8 -125z"/>
</g>
</svg>
